<?xml version="1.0" encoding="UTF-8"?>
<svg xmlns="http://www.w3.org/2000/svg" viewBox="0 0 1024 1024">
  <defs>
    <style>
      .cls-1 {
        fill: #fccc0a;
      }

      .cls-2 {
        fill: #606060;
      }

      .cls-3 {
        fill: #2850ad;
      }

      .cls-4 {
        fill: #00933c;
      }

      .cls-5 {
        fill: none;
        stroke: #5db3f9;
        stroke-miterlimit: 10;
        stroke-width: 1.5px;
      }
    </style>
  </defs>
  <g id="_4_Layer" data-name="4 – Layer">
    <g>
      <polygon class="cls-4" points="237.39 700.26 75.27 700.26 194.16 563.26 356.27 563.26 237.39 700.26"/>
      <path class="cls-3" d="M241.77,309.26c-41.96,0-76.02,34.84-76.5,78h.31l76,216h.69l76-216c-.48-43.16-34.54-78-76.5-78Z"/>
      <circle class="cls-1" cx="241.77" cy="386.76" r="35"/>
    </g>
  </g>
  <g id="App_Icon_Shape" data-name="App Icon Shape">
    <path class="cls-2" d="M0,0v1024h1024V0H0ZM1024,651c0,14.24,0,28.48-.08,42.73-.07,12-.21,23.99-.53,35.98-.71,26.13-2.25,52.49-6.89,78.34-4.71,26.22-12.4,50.62-24.53,74.44-11.92,23.41-27.49,44.84-46.07,63.41s-40,34.15-63.41,46.07c-23.82,12.12-48.22,19.82-74.44,24.53-25.84,4.65-52.2,6.18-78.34,6.89-11.99.33-23.99.46-35.98.53-14.24.09-28.48.08-42.73.08h-278c-14.24,0-28.48,0-42.73-.08-12-.07-23.99-.21-35.98-.53-26.13-.71-52.49-2.25-78.34-6.89-26.22-4.71-50.62-12.4-74.44-24.53-23.41-11.92-44.84-27.49-63.41-46.07s-34.15-40-46.07-63.41c-12.12-23.82-19.82-48.22-24.53-74.44-4.65-25.84-6.18-52.2-6.89-78.34-.33-11.99-.46-23.99-.53-35.98C0,679.48,0,665.24,0,651v-278C0,358.76,0,344.52.08,330.27c.07-12,.21-23.99.53-35.98.71-26.13,2.25-52.49,6.89-78.34,4.71-26.22,12.4-50.62,24.53-74.44,11.92-23.41,27.49-44.84,46.07-63.41s40-34.15,63.41-46.07c23.82-12.12,48.22-19.82,74.44-24.53,25.84-4.65,52.2-6.18,78.34-6.89,11.99-.33,23.99-.46,35.98-.53C344.52,0,358.76,0,373,0h278c14.24,0,28.48,0,42.73.08,12,.07,23.99.21,35.98.53,26.13.71,52.49,2.25,78.34,6.89,26.22,4.71,50.62,12.4,74.44,24.53,23.41,11.92,44.84,27.49,63.41,46.07s34.15,40,46.07,63.41c12.12,23.82,19.82,48.22,24.53,74.44,4.65,25.84,6.18,52.2,6.89,78.34.33,11.99.46,23.99.53,35.98.09,14.24.08,28.48.08,42.73v278Z"/>
  </g>
  <g id="Grid">
    <g id="SUBDIVISIONS">
      <line class="cls-5" x1="1024" y1="0" x2="0" y2="1024"/>
      <line class="cls-5" x1="1024" y1="1024" x2="0" y2="0"/>
      <line class="cls-5" x1="512" y1="0" x2="512" y2="1024"/>
      <line class="cls-5" x1="1024" y1="512" x2="0" y2="512"/>
      <line class="cls-5" x1="512" y1="0" x2="512" y2="1024"/>
      <line class="cls-5" x1="1024" y1="512" x2="0" y2="512"/>
      <line class="cls-5" x1="1024" y1="640" x2="0" y2="640"/>
      <line class="cls-5" x1="1024" y1="768" x2="0" y2="768"/>
      <line class="cls-5" x1="1024" y1="896" x2="0" y2="896"/>
      <line class="cls-5" x1="1024" y1="384" x2="0" y2="384"/>
      <line class="cls-5" x1="1024" y1="256" x2="0" y2="256"/>
      <line class="cls-5" x1="1024" y1="128" x2="0" y2="128"/>
      <line class="cls-5" x1="512" y1="1024" x2="512" y2="0"/>
      <line class="cls-5" x1="512" y1="1024" x2="512" y2="0"/>
      <line class="cls-5" x1="384" y1="1024" x2="384" y2="0"/>
      <line class="cls-5" x1="256" y1="1024" x2="256" y2="0"/>
      <line class="cls-5" x1="128" y1="1024" x2="128" y2="0"/>
      <line class="cls-5" x1="640" y1="1024" x2="640" y2="0"/>
      <line class="cls-5" x1="768" y1="1024" x2="768" y2="0"/>
      <line class="cls-5" x1="896" y1="1024" x2="896" y2="0"/>
    </g>
    <g id="CIRCLES">
      <circle class="cls-5" cx="512" cy="512" r="410"/>
      <circle class="cls-5" cx="512" cy="512" r="256"/>
      <circle class="cls-5" cx="512" cy="512" r="102"/>
    </g>
  </g>
</svg>