<?xml version="1.0" encoding="UTF-8"?>
<svg xmlns="http://www.w3.org/2000/svg" viewBox="0 0 1024 1024">
  <defs>
    <style>
      .cls-1 {
        fill: #ff6319;
      }

      .cls-2 {
        fill: #6d6e71;
      }

      .cls-3 {
        fill: #963;
      }

      .cls-4 {
        fill: #606060;
      }

      .cls-5 {
        fill: #b933ad;
      }

      .cls-6 {
        fill: #a1c7b6;
      }

      .cls-7 {
        stroke: #5db3f9;
        stroke-width: 1.5px;
      }

      .cls-7, .cls-8, .cls-9 {
        fill: none;
        stroke-miterlimit: 10;
      }

      .cls-8 {
        stroke-width: 10px;
      }

      .cls-8, .cls-9 {
        stroke: #a7a9ac;
      }

      .cls-9 {
        stroke-width: 5px;
      }
    </style>
  </defs>
  <g id="_4_Layer" data-name="4 – Layer">
    <g>
      <path class="cls-6" d="M962,764.28H62V231.98c0-10.38,5.37-20.03,14.19-25.5l24.91-15.45c7.12-4.42,15.33-6.75,23.71-6.75h774.36c8.38,0,16.59,2.34,23.71,6.75l24.91,15.45c8.82,5.47,14.19,15.11,14.19,25.5v532.3Z"/>
      <rect class="cls-1" x="689" y="335.28" width="235" height="180.7" rx="21" ry="21"/>
      <path class="cls-8" d="M392.2,270.98h240.6c10.49,0,19,8.51,19,19v474.3h-279.6v-473.3c0-11.04,8.96-20,20-20Z"/>
      <line class="cls-9" x1="512" y1="271.28" x2="512" y2="764.28"/>
      <rect class="cls-2" x="39.5" y="882.28" width="945" height="28"/>
      <line class="cls-9" x1="689" y1="379.28" x2="924" y2="379.28"/>
      <g>
        <rect class="cls-1" x="396.5" y="337.28" width="93" height="176" rx="15" ry="15"/>
        <rect class="cls-1" x="534.5" y="337.28" width="93" height="176" rx="15" ry="15"/>
      </g>
      <g>
        <g>
          <circle class="cls-5" cx="203.57" cy="831.2" r="50"/>
          <circle class="cls-5" cx="307.97" cy="831.1" r="50"/>
        </g>
        <g>
          <circle class="cls-5" cx="716.03" cy="831.2" r="50"/>
          <circle class="cls-5" cx="820.43" cy="831.1" r="50"/>
        </g>
      </g>
      <path class="cls-3" d="M112,764.28h800v52c0,8.28-6.72,15-15,15H127c-8.28,0-15-6.72-15-15v-52h0Z"/>
    </g>
  </g>
  <g id="App_Icon_Shape" data-name="App Icon Shape">
    <path class="cls-4" d="M0,0v1024h1024V0H0ZM1024,651c0,14.24,0,28.48-.08,42.73-.07,12-.21,23.99-.53,35.98-.71,26.13-2.25,52.49-6.89,78.34-4.71,26.22-12.4,50.62-24.53,74.44-11.92,23.41-27.49,44.84-46.07,63.41s-40,34.15-63.41,46.07c-23.82,12.12-48.22,19.82-74.44,24.53-25.84,4.65-52.2,6.18-78.34,6.89-11.99.33-23.99.46-35.98.53-14.24.09-28.48.08-42.73.08h-278c-14.24,0-28.48,0-42.73-.08-12-.07-23.99-.21-35.98-.53-26.13-.71-52.49-2.25-78.34-6.89-26.22-4.71-50.62-12.4-74.44-24.53-23.41-11.92-44.84-27.49-63.41-46.07s-34.15-40-46.07-63.41c-12.12-23.82-19.82-48.22-24.53-74.44-4.65-25.84-6.18-52.2-6.89-78.34-.33-11.99-.46-23.99-.53-35.98C0,679.48,0,665.24,0,651v-278C0,358.76,0,344.52.08,330.27c.07-12,.21-23.99.53-35.98.71-26.13,2.25-52.49,6.89-78.34,4.71-26.22,12.4-50.62,24.53-74.44,11.92-23.41,27.49-44.84,46.07-63.41s40-34.15,63.41-46.07c23.82-12.12,48.22-19.82,74.44-24.53,25.84-4.65,52.2-6.18,78.34-6.89,11.99-.33,23.99-.46,35.98-.53C344.52,0,358.76,0,373,0h278c14.24,0,28.48,0,42.73.08,12,.07,23.99.21,35.98.53,26.13.71,52.49,2.25,78.34,6.89,26.22,4.71,50.62,12.4,74.44,24.53,23.41,11.92,44.84,27.49,63.41,46.07s34.15,40,46.07,63.41c12.12,23.82,19.82,48.22,24.53,74.44,4.65,25.84,6.18,52.2,6.89,78.34.33,11.99.46,23.99.53,35.98.09,14.24.08,28.48.08,42.73v278Z"/>
  </g>
  <g id="Grid">
    <g id="SUBDIVISIONS">
      <line class="cls-7" x1="1024" y1="0" x2="0" y2="1024"/>
      <line class="cls-7" x1="1024" y1="1024" x2="0" y2="0"/>
      <line class="cls-7" x1="512" y1="0" x2="512" y2="1024"/>
      <line class="cls-7" x1="1024" y1="512" x2="0" y2="512"/>
      <line class="cls-7" x1="512" y1="0" x2="512" y2="1024"/>
      <line class="cls-7" x1="1024" y1="512" x2="0" y2="512"/>
      <line class="cls-7" x1="1024" y1="640" x2="0" y2="640"/>
      <line class="cls-7" x1="1024" y1="768" x2="0" y2="768"/>
      <line class="cls-7" x1="1024" y1="896" x2="0" y2="896"/>
      <line class="cls-7" x1="1024" y1="384" x2="0" y2="384"/>
      <line class="cls-7" x1="1024" y1="256" x2="0" y2="256"/>
      <line class="cls-7" x1="1024" y1="128" x2="0" y2="128"/>
      <line class="cls-7" x1="512" y1="1024" x2="512" y2="0"/>
      <line class="cls-7" x1="512" y1="1024" x2="512" y2="0"/>
      <line class="cls-7" x1="384" y1="1024" x2="384" y2="0"/>
      <line class="cls-7" x1="256" y1="1024" x2="256" y2="0"/>
      <line class="cls-7" x1="128" y1="1024" x2="128" y2="0"/>
      <line class="cls-7" x1="640" y1="1024" x2="640" y2="0"/>
      <line class="cls-7" x1="768" y1="1024" x2="768" y2="0"/>
      <line class="cls-7" x1="896" y1="1024" x2="896" y2="0"/>
    </g>
    <g id="CIRCLES">
      <circle class="cls-7" cx="512" cy="512" r="410"/>
      <circle class="cls-7" cx="512" cy="512" r="256"/>
      <circle class="cls-7" cx="512" cy="512" r="102"/>
    </g>
  </g>
</svg>